<?xml version="1.0" encoding="utf-8"?>
<!-- Generator: Adobe Illustrator 16.0.0, SVG Export Plug-In . SVG Version: 6.00 Build 0)  -->
<!DOCTYPE svg PUBLIC "-//W3C//DTD SVG 1.1//EN" "http://www.w3.org/Graphics/SVG/1.1/DTD/svg11.dtd">
<svg version="1.1" id="Layer_1" xmlns="http://www.w3.org/2000/svg" xmlns:xlink="http://www.w3.org/1999/xlink" x="0px" y="0px"
	 width="1347px" height="208px" viewBox="0 0 1347 208" enable-background="new 0 0 1347 208" fill="#e79a00" xml:space="preserve">
<path fill-rule="evenodd" clip-rule="evenodd" d="M0,70.751c3.74-1.319,12.13,4.338,12.121,8.285
	c-0.002,0.836-0.708,2.348-1.167,2.378c-1.335,0.089-2.985-0.03-4.015-0.765C4.475,78.896,2.295,76.743,0,74.751
	C0,73.418,0,72.084,0,70.751z"/>
<path fill-rule="evenodd" clip-rule="evenodd" d="M1347,32.751c-2.798,0.19-5.632,0.715-8.379,0.426
	c-1.315-0.139-2.468-1.817-3.694-2.799c1.063-0.925,2.05-2.511,3.207-2.646c2.914-0.342,5.905-0.03,8.866,0.02
	C1347,29.418,1347,31.084,1347,32.751z"/>
<path fill-rule="evenodd" clip-rule="evenodd" d="M1004.89,161.218c-3.507,3.011-6.715,5.852-10.076,8.499
	c-0.302,0.237-2.131-0.629-2.307-1.251c-0.311-1.094-0.333-2.749,0.305-3.541c1.852-2.299,3.994-4.396,6.233-6.329
	c0.709-0.613,2.229-0.87,3.104-0.548C1003.032,158.372,1003.576,159.619,1004.89,161.218z"/>
<path fill-rule="evenodd" clip-rule="evenodd" d="M872.767,178.256c-2.899,1.141-5.262,2.687-5.829,2.188
	c-2.9-2.547-5.417-5.559-7.783-8.628c-0.187-0.243,1.802-2.161,2.778-3.301C865.119,171.38,868.306,174.245,872.767,178.256z"/>
<path fill-rule="evenodd" clip-rule="evenodd" d="M1008.225,155.654c-0.693-2.913-1.844-5.019-1.256-5.778
	c2.013-2.601,4.462-4.97,7.124-6.905c0.908-0.66,2.937,0.222,4.453,0.398c-0.304,1.32-0.185,3.045-0.989,3.886
	C1015.088,149.837,1012.266,152.08,1008.225,155.654z"/>
<path fill-rule="evenodd" clip-rule="evenodd" d="M727.275,98.828c-0.673,0.866-1.202,2.227-2.033,2.447
	c-1.031,0.274-2.901-0.006-3.382-0.729c-1.81-2.724-3.421-5.639-4.62-8.675c-0.36-0.915,0.544-2.94,1.466-3.542
	c0.655-0.428,2.858,0.317,3.421,1.168C724.018,92.355,725.484,95.495,727.275,98.828z"/>
<path fill-rule="evenodd" clip-rule="evenodd" d="M44.834,107.712c-1.12,1.639-1.509,2.866-2.188,3.055
	c-1.135,0.316-2.781,0.426-3.636-0.185c-2.542-1.814-4.876-3.945-7.123-6.127c-0.559-0.543-0.906-1.962-0.587-2.591
	c0.454-0.894,2.109-2.188,2.397-2.001C37.424,102.29,40.999,104.95,44.834,107.712z"/>
<path fill-rule="evenodd" clip-rule="evenodd" d="M533.19,68.943c-1.654,1.847-2.169,2.705-2.921,3.207
	c-2.326,1.553-4.629,3.237-7.175,4.318c-1.163,0.493-2.875-0.31-4.338-0.524c0.363-1.378,0.283-3.299,1.177-4.028
	c2.273-1.857,4.843-3.567,7.576-4.554C528.813,66.893,530.757,68.202,533.19,68.943z"/>
<path fill-rule="evenodd" clip-rule="evenodd" d="M793.546,150.629c-1.538,0.564-3.281,1.889-4.431,1.492
	c-3.066-1.058-5.948-2.739-8.743-4.438c-0.705-0.43-1.376-2.153-1.06-2.747c0.521-0.978,2.219-2.354,2.797-2.105
	c3.574,1.529,6.986,3.444,10.411,5.306C792.848,148.314,792.898,149.001,793.546,150.629z"/>
<path fill-rule="evenodd" clip-rule="evenodd" d="M756.564,129.744c-1.632,0.61-3.249,1.858-4.441,1.535
	c-3.019-0.818-5.939-2.174-8.695-3.687c-0.816-0.447-1.396-2.189-1.261-3.232c0.104-0.803,1.78-2.209,2.27-2.027
	c3.706,1.368,7.311,3.021,10.89,4.706C755.766,127.246,755.869,128.165,756.564,129.744z"/>
<path fill-rule="evenodd" clip-rule="evenodd" d="M1263.511,86.575c-2.506,1.686-4.883,3.63-7.565,4.96
	c-1.604,0.795-3.685,0.625-5.551,0.89c0.084-1.582-0.458-3.9,0.371-4.604c2.223-1.887,4.907-3.443,7.663-4.396
	c1.342-0.465,3.251,0.71,4.902,1.144C1263.392,85.237,1263.451,85.906,1263.511,86.575z"/>
<path fill-rule="evenodd" clip-rule="evenodd" d="M922.852,194.646c2.097,1.216,5.865,2.324,5.938,3.637
	c0.254,4.589-3.907,3.401-6.543,3.307c-2.765-0.1-7.434,1.544-7.408-3.106C914.867,193.15,919.929,197.215,922.852,194.646z"/>
<path fill-rule="evenodd" clip-rule="evenodd" d="M1231.969,97.182c-0.774-0.545-3.542-1.495-3.733-2.818
	c-0.537-3.705,2.879-3.155,5.193-3.426c2.128-0.249,4.332-0.581,6.405-0.257c1.136,0.178,2.071,1.637,3.097,2.519
	c-0.875,0.945-1.592,2.402-2.657,2.73C1238.1,96.601,1235.738,96.664,1231.969,97.182z"/>
<path fill-rule="evenodd" clip-rule="evenodd" d="M233.379,161.059c-1.24-0.158-3.178-0.058-4.792-0.731
	c-1.074-0.448-2.467-2.148-2.302-3.021c0.189-1.004,1.915-2.379,3.016-2.419c2.78-0.101,5.634,0.235,8.356,0.851
	c1.234,0.278,2.226,1.634,3.328,2.5c-1.194,1.052-2.252,2.384-3.632,3.056C236.46,161.729,235.097,161.201,233.379,161.059z"/>
<path fill-rule="evenodd" clip-rule="evenodd" d="M317.309,137.306c0.992-0.093,2.15-0.556,2.941-0.2
	c1.583,0.714,2.965,1.875,4.431,2.852c-1.424,0.968-2.729,2.327-4.301,2.805c-2.024,0.615-4.323,0.914-6.391,0.601
	c-1.428-0.216-2.664-1.698-3.985-2.615c1.111-1.021,2.079-2.337,3.38-2.974c1.111-0.544,2.604-0.311,3.929-0.42
	C317.311,137.337,317.31,137.321,317.309,137.306z"/>
<path fill-rule="evenodd" clip-rule="evenodd" d="M504.038,101.474c-0.177,3.012-8.176,9.027-10.688,8.324
	c-0.828-0.232-1.906-1.085-2.061-1.824c-0.196-0.935,0.101-2.423,0.768-3.007c2.35-2.057,4.868-3.954,7.502-5.63
	c0.745-0.474,2.241-0.276,3.133,0.153C503.412,99.837,503.739,100.997,504.038,101.474z"/>
<path fill-rule="evenodd" clip-rule="evenodd" d="M89.614,137.17c-0.814-0.647-2.219-1.764-3.623-2.88
	c1.487-1.133,2.823-2.755,4.5-3.278c2.157-0.673,4.616-0.744,6.89-0.521c1.159,0.114,2.199,1.438,3.293,2.216
	c-0.809,1.053-1.425,2.699-2.467,3.038C95.88,136.502,93.34,136.607,89.614,137.17z"/>
<path fill-rule="evenodd" clip-rule="evenodd" d="M717.985,80.983c-3.152,0.713-5.598,1.879-6.149,1.285
	c-2.549-2.744-4.678-5.914-6.596-9.146c-0.167-0.281,2.3-2.124,3.543-3.242C711.457,73.107,714.131,76.334,717.985,80.983z"/>
<path fill-rule="evenodd" clip-rule="evenodd" d="M628.732,22.147c-4.652-3.274-8.019-5.546-11.221-8.028
	c-0.381-0.295-0.188-2.048,0.315-2.585c0.675-0.723,2.298-1.563,2.844-1.236c3.196,1.917,6.354,3.98,9.132,6.439
	C630.375,17.243,629.275,19.637,628.732,22.147z"/>
<path fill-rule="evenodd" clip-rule="evenodd" d="M356.171,144.727c-0.838-0.892-1.994-2.121-3.15-3.351
	c1.221-0.925,2.318-2.302,3.689-2.677c2.529-0.691,5.237-1.13,7.834-0.991c1.178,0.063,2.27,1.756,3.399,2.71
	c-0.798,0.846-1.459,2.166-2.422,2.446C362.84,143.646,360.032,143.997,356.171,144.727z"/>
<path fill-rule="evenodd" clip-rule="evenodd" d="M645.523,33.485c-0.752,1.151-1.098,2.298-1.814,2.62
	c-0.9,0.404-2.566,0.601-3.098,0.075c-2.325-2.303-4.555-4.767-6.385-7.467c-0.567-0.837-0.214-3.103,0.551-3.794
	c0.659-0.596,2.999-0.385,3.729,0.341C641.021,27.761,643.156,30.643,645.523,33.485z"/>
<path fill-rule="evenodd" clip-rule="evenodd" d="M855.815,163.818c-1.608,0.389-3.418,1.461-4.617,0.987
	c-2.748-1.086-5.283-2.806-7.72-4.529c-0.775-0.55-1.46-2.019-1.289-2.893c0.167-0.859,1.86-2.286,2.218-2.11
	c3.648,1.797,7.174,3.848,10.688,5.904C855.393,161.352,855.364,162.082,855.815,163.818z"/>
<path fill-rule="evenodd" clip-rule="evenodd" d="M887.422,192.647c-1.292,0.599-3.096,2.116-3.922,1.698
	c-3.188-1.609-6.148-3.728-8.98-5.93c-0.549-0.427-0.534-2.315-0.063-3.102c0.443-0.74,2.199-1.553,2.741-1.237
	c3.244,1.885,6.318,4.065,9.402,6.214C886.918,190.513,886.93,191.177,887.422,192.647z"/>
<path fill-rule="evenodd" clip-rule="evenodd" d="M1297.964,48.448c-1.135-1.034-2.342-1.638-2.623-2.532
	c-0.27-0.857,0.094-2.377,0.752-2.978c2.192-1.997,4.498-3.969,7.063-5.41c1.028-0.578,2.845,0.246,4.303,0.432
	c-0.353,1.393-0.258,3.267-1.143,4.085C1303.824,44.354,1300.93,46.23,1297.964,48.448z"/>
<path fill-rule="evenodd" clip-rule="evenodd" d="M1201.1,95.862c-1.469,1.857-1.971,3.051-2.852,3.5
	c-2.656,1.354-5.392,2.648-8.239,3.476c-1.074,0.312-2.539-0.724-3.825-1.145c0.542-1.344,0.708-3.305,1.701-3.911
	c2.526-1.544,5.347-2.775,8.209-3.526C1197.32,93.934,1198.941,95.116,1201.1,95.862z"/>
<path fill-rule="evenodd" clip-rule="evenodd" d="M682.884,55.839c-1.567,0.667-2.935,1.824-3.976,1.582
	c-3.052-0.709-6.051-1.809-8.902-3.121c-0.921-0.424-1.937-2.081-1.788-2.991c0.154-0.944,1.888-2.517,2.547-2.345
	c3.507,0.916,6.932,2.201,10.288,3.591C681.719,52.83,681.965,54.12,682.884,55.839z"/>
<path fill-rule="evenodd" clip-rule="evenodd" d="M1294.104,56.27c-3.457,2.492-6.678,5.476-10.46,7.291
	c-2.243,1.076-3.987-1.468-2.67-3.556c1.908-3.025,4.498-5.707,7.197-8.081c0.636-0.559,2.87,0.702,4.368,1.126
	C1293.061,54.123,1293.582,55.196,1294.104,56.27z"/>
<path fill-rule="evenodd" clip-rule="evenodd" d="M540.6,67.658c-1.756-1.448-3.111-2.021-3.271-2.831
	c-0.211-1.064,0.187-2.607,0.908-3.429c1.82-2.068,3.854-3.998,6.045-5.663c0.807-0.613,2.468-0.728,3.42-0.32
	c0.724,0.309,1.583,2.315,1.285,2.688C546.41,61.313,543.585,64.325,540.6,67.658z"/>
<path fill-rule="evenodd" clip-rule="evenodd" d="M460.02,112.562c-3.765-0.442-6.207-0.339-8.321-1.12
	c-1.33-0.492-2.168-2.312-3.228-3.535c1.281-0.722,2.535-1.977,3.851-2.046c2.277-0.121,4.586,0.604,6.896,0.766
	c2.117,0.148,4.479,0.261,3.652,3.117C462.466,111.141,460.525,112.093,460.02,112.562z"/>
<path fill-rule="evenodd" clip-rule="evenodd" d="M602.554,11.783c-0.063,0-1.706,0.39-3.004-0.111
	c-1.26-0.487-2.166-1.89-3.228-2.89c1.146-0.95,2.23-2.596,3.452-2.706c2.602-0.233,5.328,0.092,7.896,0.669
	c1.239,0.279,2.233,1.646,3.338,2.52c-1.188,1.053-2.238,2.401-3.616,3.052C606.508,12.733,605.138,12.121,602.554,11.783z"/>
<path fill-rule="evenodd" clip-rule="evenodd" d="M438.823,109.063c-3.872-0.515-6.553-0.648-9.093-1.316
	c-1.064-0.28-2.622-1.781-2.537-2.574c0.115-1.071,1.642-2.872,2.487-2.831c3.606,0.177,7.211,0.799,10.751,1.561
	c0.629,0.135,1.567,2.167,1.297,2.533C440.805,107.682,439.404,108.573,438.823,109.063z"/>
<path fill-rule="evenodd" clip-rule="evenodd" d="M182.522,134.818c-1.578,0.427-3.469,1.616-4.669,1.124
	c-2.69-1.104-5.191-2.86-7.44-4.744c-0.827-0.691-1.304-2.759-0.866-3.7c0.353-0.759,2.683-1.438,3.507-0.991
	c3.355,1.818,6.467,4.083,9.669,6.184C182.656,133.399,182.589,134.108,182.522,134.818z"/>
<path fill-rule="evenodd" clip-rule="evenodd" d="M130.04,125.872c-0.384-0.284-1.774-0.793-1.937-1.561
	c-0.228-1.075,0.181-3.184,0.803-3.391c3.562-1.185,7.245-2.076,10.949-2.69c0.559-0.092,1.834,1.717,2.048,2.791
	c0.151,0.756-0.768,2.337-1.5,2.55C137.248,124.488,133.984,125.037,130.04,125.872z"/>
<path fill-rule="evenodd" clip-rule="evenodd" d="M772.673,140.59c-3.602-2.216-6.993-4.168-10.18-6.412
	c-0.465-0.327-0.317-2.315,0.218-3.042c0.511-0.692,2.167-1.305,2.852-0.976c3.098,1.487,6.107,3.203,8.959,5.119
	c0.64,0.43,0.92,2.131,0.63,3.002C774.859,139.159,773.651,139.732,772.673,140.59z"/>
<path fill-rule="evenodd" clip-rule="evenodd" d="M832.843,157.104c-4.006-0.608-6.717-0.744-9.224-1.53
	c-1.074-0.337-1.724-2.025-2.566-3.101c1.087-0.835,2.188-2.389,3.258-2.367c2.79,0.057,5.632,0.58,8.32,1.371
	c1.263,0.372,2.218,1.786,3.313,2.729C834.704,155.364,833.464,156.523,832.843,157.104z"/>
<path fill-rule="evenodd" clip-rule="evenodd" d="M701.855,65.506c-1.744,0.438-3.696,1.62-4.925,1.099
	c-2.843-1.208-5.427-3.12-7.907-5.021c-0.65-0.498-1.057-2.333-0.652-2.949c0.593-0.907,2.431-2.05,3.017-1.737
	c3.31,1.762,6.42,3.906,9.55,5.991C701.262,63.104,701.275,63.787,701.855,65.506z"/>
<path fill-rule="evenodd" clip-rule="evenodd" d="M1133.158,134.026c-0.754-0.7-2.413-1.551-2.678-2.717
	c-0.194-0.855,1.247-2.769,2.299-3.087c2.811-0.849,5.8-1.394,8.725-1.425c1.145-0.012,2.306,1.67,3.46,2.58
	c-0.912,0.955-1.663,2.41-2.768,2.765C1139.553,132.991,1136.742,133.321,1133.158,134.026z"/>
<path fill-rule="evenodd" clip-rule="evenodd" d="M1165.719,120.616c-0.893,1.678-1.047,2.51-1.508,2.748
	c-3.219,1.662-6.439,3.363-9.811,4.659c-0.784,0.302-2.909-0.736-3.07-1.459c-0.249-1.116,0.279-3.057,1.154-3.648
	c2.437-1.648,5.112-3.178,7.916-3.953C1161.805,118.574,1163.691,119.929,1165.719,120.616z"/>
<path fill-rule="evenodd" clip-rule="evenodd" d="M400.781,113.494c-3.323,2.743-6.328,6.161-10.104,7.951
	c-1.925,0.912-3.767-2.185-2.004-4.433c1.926-2.457,4.327-4.691,6.935-6.39c1.011-0.658,3.152,0.419,4.778,0.706
	C400.519,112.051,400.649,112.772,400.781,113.494z"/>
<path fill-rule="evenodd" clip-rule="evenodd" d="M151.747,118.417c3.434,0.926,6.308,1.331,8.797,2.533
	c1.192,0.576,1.656,2.662,2.45,4.064c-1.34,0.445-2.746,1.395-4.007,1.23c-2.601-0.338-5.255-0.988-7.623-2.082
	c-1.11-0.513-2.104-2.317-2.189-3.602C149.125,119.837,151.024,118.98,151.747,118.417z"/>
<path fill-rule="evenodd" clip-rule="evenodd" d="M961.582,187.812c-0.332,0-0.668,0.033-0.996-0.005
	c-2.258-0.266-5.883,1.298-5.957-2.437c-0.081-4.089,3.821-3.14,6.471-3.457c0.164-0.02,0.351-0.046,0.496,0.011
	c2.566,1.014,7.308-1.597,7.148,3.481c-0.038,1.235-4.313,2.338-6.64,3.501C961.931,188.541,961.756,188.177,961.582,187.812z"/>
<path fill-rule="evenodd" clip-rule="evenodd" d="M300.487,140.189c0.815,0.696,2.458,1.439,2.605,2.409
	c0.15,0.991-0.916,2.777-1.894,3.21c-2.684,1.188-5.559,2.087-8.447,2.589c-1.054,0.184-3.021-0.832-3.358-1.747
	c-0.32-0.868,0.652-2.985,1.571-3.393C293.793,142.002,296.87,141.301,300.487,140.189z"/>
<path fill-rule="evenodd" clip-rule="evenodd" d="M562.538,30.807c-0.779-0.531-2.042-0.933-2.227-1.623
	c-0.3-1.12-0.344-2.793,0.3-3.591c1.868-2.313,3.943-4.565,6.33-6.302c0.985-0.717,2.971-0.059,4.502-0.025
	c-0.237,1.327-0.08,2.935-0.785,3.931c-2.098,2.963-4.535,5.687-6.84,8.504C563.392,31.402,562.965,31.104,562.538,30.807z"/>
<path fill-rule="evenodd" clip-rule="evenodd" d="M271.315,155.454c-0.685-0.593-2.225-1.301-2.316-2.162
	c-0.119-1.119,0.61-2.998,1.51-3.429c2.654-1.27,5.522-2.276,8.412-2.777c1.163-0.202,2.599,1.18,3.911,1.84
	c-0.653,1.151-1.037,2.902-2.011,3.341C277.985,153.545,274.911,154.298,271.315,155.454z"/>
<path fill-rule="evenodd" clip-rule="evenodd" d="M208.359,148.766c3.249,1.194,6.595,2.189,9.679,3.714
	c0.816,0.404,1.278,2.531,1.036,3.686c-0.14,0.669-2.164,1.576-3.067,1.338c-3.017-0.795-6.023-1.841-8.787-3.268
	c-0.875-0.451-1.253-2.378-1.347-3.667c-0.079-1.084,0.585-2.223,0.921-3.337C207.317,147.743,207.838,148.254,208.359,148.766z"/>
<path fill-rule="evenodd" clip-rule="evenodd" d="M662.45,47.312c-1.06,0.702-2.659,2.43-3.374,2.12
	c-3.324-1.444-6.484-3.332-9.502-5.359c-0.603-0.405-0.738-2.311-0.334-3.169c0.371-0.788,2.111-1.778,2.645-1.505
	c3.375,1.733,6.596,3.771,9.821,5.782C662.027,45.381,662.039,46.076,662.45,47.312z"/>
<path fill-rule="evenodd" clip-rule="evenodd" d="M988.729,175.946c-1.8,1.47-3.471,3.148-5.433,4.356
	c-2.322,1.43-5.094,5.154-7.575,1.841c-2.769-3.696,2.143-4.565,4.076-6.342c1.312-1.205,2.854-2.479,4.501-2.894
	c1.211-0.306,2.76,0.73,4.157,1.168C988.547,174.699,988.638,175.323,988.729,175.946z"/>
<path fill-rule="evenodd" clip-rule="evenodd" d="M559.407,37.684c-1.953,3.787-3.633,7.391-5.711,10.748
	c-0.366,0.592-2.563,0.52-3.598,0.054c-0.622-0.28-1.15-2.132-0.829-2.907c1.268-3.056,2.725-6.069,4.486-8.862
	c0.476-0.754,2.285-0.941,3.454-0.878C557.902,35.876,558.541,36.915,559.407,37.684z"/>
<path fill-rule="evenodd" clip-rule="evenodd" d="M60.42,123.967c-1.502,0.361-3.495,1.509-4.414,0.936
	c-2.779-1.732-5.378-3.932-7.5-6.417c-0.528-0.617,1.011-3.001,1.6-4.572c3.574,2.596,7.148,5.192,10.723,7.789
	C60.692,122.457,60.556,123.212,60.42,123.967z"/>
<path fill-rule="evenodd" clip-rule="evenodd" d="M200.512,147.24c-1.752,0.538-3.648,1.819-4.808,1.336
	c-2.841-1.185-5.501-2.992-7.89-4.965c-0.78-0.645-0.814-2.642-0.549-3.884c0.109-0.514,2.194-1.239,2.879-0.889
	c3.207,1.642,6.263,3.584,9.303,5.53C199.871,144.641,199.903,145.527,200.512,147.24z"/>
<path fill-rule="evenodd" clip-rule="evenodd" d="M67.685,126.337c3.888,1.355,7.223,2.327,10.349,3.755
	c0.692,0.316,1.167,2.46,0.79,3.363c-0.345,0.825-2.144,1.744-3.019,1.521c-3.173-0.813-6.301-1.928-9.274-3.299
	c-0.764-0.353-1.427-2.208-1.182-3.114C65.609,127.598,67.002,126.938,67.685,126.337z"/>
<path fill-rule="evenodd" clip-rule="evenodd" d="M1038.276,134.122c-1.218,1.422-1.763,2.565-2.652,2.999
	c-2.686,1.309-5.45,2.524-8.303,3.377c-0.945,0.283-2.827-0.335-3.243-1.103c-0.469-0.864-0.154-3.129,0.494-3.458
	c3.23-1.642,6.628-3.029,10.098-4.069C1035.457,131.632,1036.765,133.131,1038.276,134.122z"/>
<path fill-rule="evenodd" clip-rule="evenodd" d="M578.002,16.11c-0.761-0.631-1.999-1.167-2.063-1.818
	c-0.113-1.152,0.123-3.058,0.854-3.449c3.041-1.626,6.276-2.935,9.549-4.04c0.684-0.23,2.286,0.686,2.635,1.451
	c0.388,0.851,0.183,2.824-0.382,3.116C585.236,13.11,581.699,14.505,578.002,16.11z"/>
<path fill-rule="evenodd" clip-rule="evenodd" d="M1269.873,81.169c-1.863-1.621-2.992-2.199-3.412-3.106
	c-0.294-0.636,0.134-1.917,0.661-2.568c1.86-2.3,3.811-4.546,5.928-6.606c0.683-0.664,2.128-1.148,2.962-0.886
	c0.86,0.272,2.144,2.07,1.972,2.318C1275.495,73.906,1272.793,77.344,1269.873,81.169z"/>
<path fill-rule="evenodd" clip-rule="evenodd" d="M516.126,83.667c-2.222,3.563-4.213,6.973-6.497,10.176
	c-0.326,0.457-2.386,0.287-3.062-0.282c-0.691-0.583-1.217-2.276-0.859-3.029c1.419-2.993,3.09-5.892,4.952-8.632
	c0.479-0.705,2.115-1.141,3.005-0.901C514.524,81.23,515.105,82.493,516.126,83.667z"/>
<path fill-rule="evenodd" clip-rule="evenodd" d="M17.289,84.003c1.922,1.202,2.819,1.614,3.532,2.237
	c2.105,1.839,4.284,3.634,6.122,5.722c0.648,0.735,0.932,2.814,0.428,3.313c-0.845,0.834-3.015,1.628-3.648,1.147
	c-2.729-2.071-5.362-4.411-7.452-7.102C15.624,88.487,16.808,86.233,17.289,84.003z"/>
<path fill-rule="evenodd" clip-rule="evenodd" d="M1115.415,133.954c-1.919-1.184-7.1,2.025-6.42-3.629
	c0.601-5.006,4.722-1.515,7.218-1.982c0.943-0.177,2.128-0.18,2.931,0.248c1.469,0.782,2.735,1.944,4.087,2.948
	c-1.478,0.891-2.883,1.958-4.461,2.6C1117.945,134.474,1116.816,134.061,1115.415,133.954z"/>
<path fill-rule="evenodd" clip-rule="evenodd" d="M808.04,149.709c0.388,0,1.993-0.345,3.328,0.107
	c1.1,0.373,2.658,1.742,2.604,2.579c-0.068,1.071-1.468,2.821-2.439,2.927c-2.757,0.297-5.657,0.229-8.359-0.354
	c-1.297-0.279-2.272-2.046-3.394-3.14c1.229-0.781,2.377-1.809,3.718-2.264C804.518,149.219,805.783,149.599,808.04,149.709z"/>
<path fill-rule="evenodd" clip-rule="evenodd" d="M738.356,117.086c-0.559,1.058-0.798,2.199-1.304,2.334
	c-1.19,0.314-3.154,0.691-3.665,0.084c-2.313-2.752-4.347-5.769-6.192-8.861c-0.359-0.603,0.302-2.228,0.974-2.897
	c0.507-0.505,2.281-0.662,2.638-0.244C733.438,110.585,735.854,113.853,738.356,117.086z"/>
<path fill-rule="evenodd" clip-rule="evenodd" d="M1094.753,126.489c1.492,0.071,3.055-0.11,4.454,0.285
	c1.033,0.291,2.669,1.431,2.6,2.022c-0.144,1.213-1.208,3.26-1.972,3.296c-3.61,0.17-7.265-0.089-10.862-0.53
	c-0.684-0.084-1.686-1.723-1.624-2.579c0.062-0.875,1.137-2.208,1.972-2.387C1091.061,126.226,1092.935,126.484,1094.753,126.489z"
	/>
<path fill-rule="evenodd" clip-rule="evenodd" d="M1055.486,128.19c0.749,0.621,2.072,1.717,3.395,2.813
	c-1.314,1.04-2.482,2.551-3.976,3.013c-2.347,0.727-4.938,1.098-7.373,0.914c-1.22-0.092-2.322-1.741-3.478-2.686
	c0.927-0.896,1.714-2.265,2.81-2.591C1049.233,128.948,1051.762,128.778,1055.486,128.19z"/>
<path fill-rule="evenodd" clip-rule="evenodd" d="M417.37,102.308c0.726,0.709,2.582,1.746,2.522,2.658
	c-0.076,1.167-1.495,2.798-2.693,3.226c-2.469,0.879-5.161,1.334-7.787,1.468c-1.137,0.058-2.335-1.114-3.506-1.728
	c0.762-1.255,1.256-3.212,2.339-3.626C410.839,103.314,413.71,103.049,417.37,102.308z"/>
<path fill-rule="evenodd" clip-rule="evenodd" d="M376.501,137.962c-1.744-1.204-2.934-1.589-3.173-2.295
	c-0.33-0.973-0.379-2.605,0.215-3.227c2.263-2.369,4.741-4.563,7.345-6.553c0.682-0.521,2.267-0.396,3.132,0.038
	c0.642,0.321,1.349,2.088,1.073,2.418C382.366,131.619,379.44,134.729,376.501,137.962z"/>
<path fill-rule="evenodd" clip-rule="evenodd" d="M110.088,133.251c-0.889-0.777-2.477-1.522-2.719-2.577
	c-0.203-0.881,0.921-2.654,1.89-3.105c2.672-1.245,5.522-2.241,8.405-2.83c1.037-0.212,3.039,0.77,3.372,1.664
	c0.321,0.862-0.639,2.935-1.568,3.391C116.681,131.159,113.635,131.994,110.088,133.251z"/>
<path fill-rule="evenodd" clip-rule="evenodd" d="M948.343,188.288c-0.269,3.518-9.922,9.62-11.553,8.217
	c-0.94-0.81-1.487-3.879-0.934-4.317c2.705-2.14,5.731-3.981,8.89-5.373C945.655,186.414,947.38,187.86,948.343,188.288z"/>
<path fill-rule="evenodd" clip-rule="evenodd" d="M904.502,200.549c-3.841-0.688-6.674-0.946-9.316-1.798
	c-0.954-0.308-1.945-2.022-1.977-3.122c-0.02-0.696,1.713-2.064,2.641-2.049c2.79,0.046,5.653,0.338,8.32,1.111
	c1.338,0.388,2.312,2.03,3.45,3.105C906.435,198.843,905.249,199.889,904.502,200.549z"/>
<path fill-rule="evenodd" clip-rule="evenodd" d="M250.308,161.061c-0.652-0.586-2.171-1.325-2.208-2.132
	c-0.054-1.191,0.68-3.214,1.545-3.508c3.091-1.052,6.357-1.708,9.607-2.089c0.838-0.099,2.583,1.324,2.62,2.108
	c0.051,1.09-0.88,2.905-1.808,3.234C257.139,159.714,254.018,160.204,250.308,161.061z"/>
<path fill-rule="evenodd" clip-rule="evenodd" d="M1316.536,37.148c-0.624-0.492-2.327-1.185-2.5-2.15
	c-0.181-1.007,0.859-2.94,1.813-3.308c2.77-1.064,5.734-1.783,8.683-2.134c1.061-0.126,2.292,1.182,3.445,1.835
	c-0.79,1.174-1.333,2.958-2.421,3.4C1322.966,35.847,1320.117,36.267,1316.536,37.148z"/>
<path fill-rule="evenodd" clip-rule="evenodd" d="M1183.096,107.543c-4.694,3.431-8.157,5.961-11.619,8.491
	c-0.823-1.3-2.558-3.534-2.33-3.756c2.793-2.72,5.78-5.277,8.977-7.503C1178.606,104.438,1180.412,106.003,1183.096,107.543z"/>
<path fill-rule="evenodd" clip-rule="evenodd" d="M338.271,137.575c1.646,0.138,3.46-0.105,4.886,0.527
	c1.231,0.546,2.021,2.089,3.006,3.19c-1.151,0.835-2.25,2.271-3.465,2.376c-2.432,0.211-5.016,0.011-7.362-0.645
	c-1.374-0.383-2.41-1.973-3.599-3.02c1.351-0.835,2.642-1.804,4.079-2.445c0.67-0.299,1.624,0.037,2.449,0.085
	C338.268,137.621,338.27,137.599,338.271,137.575z"/>
<path fill-rule="evenodd" clip-rule="evenodd" d="M1073.528,125.432c2.225,1.25,6.264,2.399,6.339,3.768
	c0.238,4.336-4.011,2.395-6.384,3.075c-1.397,0.401-3.051,0.672-4.39,0.295c-1.244-0.351-2.225-1.64-3.321-2.515
	c1.06-1.109,1.944-2.563,3.234-3.218c1.047-0.533,2.58-0.108,3.898-0.108C1073.113,126.296,1073.32,125.864,1073.528,125.432z"/>
<path fill-rule="evenodd" clip-rule="evenodd" d="M477.377,105.882c2.705,1.568,6.791,2.86,6.783,4.126
	c-0.03,4.651-4.393,2.761-6.929,2.942c-2.549,0.184-6.748,1.958-6.962-2.63C470.213,109.104,474.353,107.69,477.377,105.882z"/>
<path fill-rule="evenodd" clip-rule="evenodd" d="M1212.574,97.821c-1.613-0.893-5.547-2.015-5.596-3.286
	c-0.187-4.821,4.19-2.912,6.673-3.021c2.57-0.111,7.028-1.824,7.243,2.436C1221.159,99.216,1216.148,95.975,1212.574,97.821z"/>
</svg>
